<svg xmlns="http://www.w3.org/2000/svg" viewBox="0 0 283.46 141.73"><title>countup</title><path d="M30,57.41H20V14a9.8,9.8,0,0,0-.43-3.15A4.81,4.81,0,0,0,18.43,8.9a4,4,0,0,0-1.6-1,6.16,6.16,0,0,0-3.67,0,4,4,0,0,0-1.6,1,4.8,4.8,0,0,0-1.13,1.92A9.76,9.76,0,0,0,10,14V126.4q0,1,.08,2.28a8.17,8.17,0,0,0,.55,2.52,4.93,4.93,0,0,0,1.48,2,4.42,4.42,0,0,0,2.89.84,4.42,4.42,0,0,0,2.89-.84,4.94,4.94,0,0,0,1.48-2,8.21,8.21,0,0,0,.55-2.52q0.08-1.32.08-2.28V72.74H30V126.4q0,1-.23,3.47A13.64,13.64,0,0,1,28.12,135a13.18,13.18,0,0,1-4.45,4.67q-3,2-8.67,2t-8.67-2A13.18,13.18,0,0,1,1.87,135a13.64,13.64,0,0,1-1.64-5.15Q0,127.36,0,126.4V14A14.12,14.12,0,0,1,1.33,7.63,12.41,12.41,0,0,1,4.8,3.27,14.54,14.54,0,0,1,9.61.8,18.64,18.64,0,0,1,15,0a17.92,17.92,0,0,1,5.58.88,14.43,14.43,0,0,1,4.8,2.63A12.73,12.73,0,0,1,28.74,7.9,14,14,0,0,1,30,14V57.41Z" style="fill:#fff"/><path d="M70,126.4q0,1-.23,3.47A13.64,13.64,0,0,1,68.11,135a13.18,13.18,0,0,1-4.45,4.67q-3,2-8.67,2t-8.67-2A13.18,13.18,0,0,1,41.87,135a13.64,13.64,0,0,1-1.64-5.15Q40,127.36,40,126.4V14q0-.64.08-1.92a15.56,15.56,0,0,1,.47-2.83A12.64,12.64,0,0,1,41.87,6a11,11,0,0,1,2.58-3A12.73,12.73,0,0,1,48.66.84,20.66,20.66,0,0,1,55,0a20.66,20.66,0,0,1,6.33.84A12.73,12.73,0,0,1,65.53,3a11,11,0,0,1,2.58,3,12.69,12.69,0,0,1,1.33,3.19,15.78,15.78,0,0,1,.47,2.83Q70,13.34,70,14V126.4Zm-20,0q0,1,.08,2.28a8.17,8.17,0,0,0,.55,2.52,4.93,4.93,0,0,0,1.48,2,4.42,4.42,0,0,0,2.89.84,4.42,4.42,0,0,0,2.89-.84,4.94,4.94,0,0,0,1.48-2,8.21,8.21,0,0,0,.55-2.52q0.08-1.32.08-2.28V14q0-1-.08-2.08a5.25,5.25,0,0,0-.55-2A4,4,0,0,0,57.88,8.3,5.44,5.44,0,0,0,55,7.67a5.44,5.44,0,0,0-2.89.64,4,4,0,0,0-1.48,1.56,5.23,5.23,0,0,0-.55,2Q50,13,50,14V126.4Z" style="fill:#fff"/><path d="M90,126.4q0,1,.08,2.28a8.17,8.17,0,0,0,.55,2.52,4.93,4.93,0,0,0,1.48,2,5.4,5.4,0,0,0,5.78,0,4.94,4.94,0,0,0,1.48-2,8.21,8.21,0,0,0,.55-2.52q0.08-1.32.08-2.28V1.2h10V126.4q0,1-.23,3.47a13.64,13.64,0,0,1-1.64,5.15,13.18,13.18,0,0,1-4.45,4.67q-3,2-8.67,2t-8.67-2A13.18,13.18,0,0,1,81.86,135a13.64,13.64,0,0,1-1.64-5.15Q80,127.36,80,126.4V1.2H90V126.4Z" style="fill:#fff"/><path d="M150,139.18H140L127.48,36.77V139.18H120V1.2h10l12.5,102.41V1.2H150v138Z" style="fill:#fff"/><path d="M187.47,1.2V8.86h-10V139.18h-10V8.86h-10V1.2h30Z" style="fill:#fff"/><path d="M223.48,126.4q0,1,.08,2.28a8.15,8.15,0,0,0,.55,2.52,4.93,4.93,0,0,0,1.48,2,5.4,5.4,0,0,0,5.78,0,4.94,4.94,0,0,0,1.48-2,8.19,8.19,0,0,0,.55-2.52q0.08-1.32.08-2.28V1.2h10V126.4q0,1-.23,3.47A13.63,13.63,0,0,1,241.6,135a13.17,13.17,0,0,1-4.45,4.67q-3,2-8.67,2t-8.67-2a13.17,13.17,0,0,1-4.45-4.67,13.63,13.63,0,0,1-1.64-5.15q-0.23-2.52-.23-3.47V1.2h10V126.4Z" style="fill:#fff"/><path d="M283.46,60q0,4.79-1.72,7.39a10.06,10.06,0,0,1-4.53,3.79,18.91,18.91,0,0,1-6.41,1.4q-3.59.2-7.34,0.2v66.43h-10V1.2h10A40.49,40.49,0,0,1,275,2.48,14.22,14.22,0,0,1,281,5.67a7.37,7.37,0,0,1,2.19,4.15,30.21,30.21,0,0,1,.31,4.15V60Zm-10-46a6.9,6.9,0,0,0-.51-3,3.09,3.09,0,0,0-1.68-1.52,9.34,9.34,0,0,0-3.09-.56q-1.92-.08-4.73-0.08V65.08q1.87,0,3.67-.08a11.49,11.49,0,0,0,3.2-.56,4.93,4.93,0,0,0,2.26-1.52,4.51,4.51,0,0,0,.86-3V14Z" style="fill:#fff"/></svg>